<svg width="28" height="27" viewBox="0 0 28 27" fill="none" xmlns="http://www.w3.org/2000/svg">
<circle cx="14.0844" cy="13.3605" r="13.0846" stroke="#CB3CFF" stroke-width="0.5"/>
<path fill-rule="evenodd" clip-rule="evenodd" d="M10.5536 0.275879C10.0948 0.275879 9.72287 0.647826 9.72287 1.10665V8.99895H9.72283C4.90521 8.99895 0.999756 12.9044 0.999756 17.722C0.999756 22.5396 4.90521 26.4451 9.72283 26.4451H17.6151C18.074 26.4451 18.4459 26.0731 18.4459 25.6143V17.722H18.4459C23.2636 17.722 27.169 13.8166 27.169 8.99895C27.169 4.18133 23.2636 0.275879 18.4459 0.275879H10.5536ZM18.4459 17.722V9.82971C18.4459 9.37089 18.074 8.99895 17.6151 8.99895H9.72287V16.8913C9.72287 17.3501 10.0948 17.722 10.5536 17.722H18.4459Z" fill="#CB3CFF"/>
<path d="M10.46 0.275879C10.0529 0.275879 9.72284 0.605917 9.72284 1.01304L9.72284 8.99895H17.7088C18.1159 8.99895 18.4459 9.32899 18.4459 9.73611L18.4459 17.722C23.2635 17.722 27.169 13.8166 27.169 8.99895C27.169 4.18133 23.2635 0.275879 18.4459 0.275879H10.46Z" fill="#00C2FF"/>
</svg>
